<svg version="1" xmlns="http://www.w3.org/2000/svg" width="266.667" height="266.667" viewBox="0 0 200.000000 200.000000"><path d="M134.4 3.1c-24 3.1-41.2 22.5-41.2 46.4 0 22.4 14.3 40.7 35.8 46l7 1.7V172H87v-37.9c0-38.4.1-39.6 3.5-38.5.6.3.9 6.6.8 17-.2 15.2 0 16.7 1.8 18.5 2.4 2.4 3.4 2.4 5.7.1 1.6-1.6 1.8-3.8 1.7-21.2-.2-22.6-.8-24.9-7.8-28-3.4-1.5-7-1.9-18.2-2-11.8-.1-15.2-.5-22.5-2.6-30.7-9.2-28.9-8.8-31.1-6.8-2.4 2.1-2.4 4.6-.1 6.6.9.8 9.3 4 18.6 7.1 9.3 3.2 17.2 5.9 17.4 6.2.3.3.5 18.6.5 40.7l.1 40.3-5.2.3-5.2.3v16.6l-16.7-.1-16.8-.1-.3 4.2-.3 4.2H55V180H179.7l.1-4 .2-4-17.8-.2-17.7-.3-.2-37.2-.1-37.2 5.2-1.1c31.2-6.5 47.4-42 31.5-69.5C171.4 9.9 153 .7 134.4 3.1zM159 14.6c20.1 11 27.1 37.4 14.8 56.6C160.2 92.7 129.9 96 112 78c-12.8-12.7-15.5-33.1-6.5-48.5 5.8-9.8 17.8-17.8 28.6-19.1 3-.3 5.5-.8 5.7-.9 1-.9 15.1 2.9 19.2 5.1zM75 151.1v21l-2.7-.3-2.8-.3-.1-20c0-11 .1-20.3.3-20.8.2-.4 1.5-.7 2.9-.7H75v21.1z"/><path d="M133.7 19.2c-3.2.4-7.8 1.6-10.2 2.7-3.7 1.6-4.5 2.6-5.4 5.8-1.7 6.6-2.4 14.4-2.6 29-.2 13.3-.1 14.3 1.6 14.3 1.8 0 2.3 1 2 3.7-.1.7.9 1.9 2.3 2.8 3.2 2.1 6.3.6 6.8-3.2l.3-2.8 11.8-.2 11.7-.2v2.4c0 3.3 2.7 5.7 5.4 4.9 1.1-.4 2.2-.8 2.4-.9.4-.3 1-3.3 1.1-5.3.1-.6 1-1.2 2.2-1.2 2 0 2-.4 1.5-15.8-.9-28-1.8-31-9.8-34-6.4-2.4-13.3-3-21.1-2zm12.8 8.4c.1 2.8.3 2.9 5.2 3.2l5.1.3.8 6.2c.4 3.4.8 6.9.8 7.7.1 1.3-2.7 1.5-18.3 1.7l-18.3.2.6-6.7c.3-3.7.6-7.2.6-7.9 0-.7 2-1.3 5.3-1.5 4.8-.3 5.2-.5 5.1-2.8-.2-3.3.5-3.6 7.3-3.5 5.7.1 5.8.2 5.8 3.1zm-18.1 28c3.3 3.2 1.3 7.4-3.5 7.4-4.2 0-5.6-5.1-2.1-7.8 2.1-1.6 3.7-1.5 5.6.4zm30 .5c2.4 3.5-.7 8.2-4.6 7.1-3.8-1-4.5-7.6-1-8.5 3.3-.9 4.1-.7 5.6 1.4zM66.9 58.5c-3.4 1.8-5.3 6.5-4.5 10.9 1.9 9.9 16.8 10.1 19.4.3 2.4-8.9-6.7-15.7-14.9-11.2z"/></svg>