<?xml version="1.0" encoding="UTF-8" standalone="no"?>
<!-- Created with Inkscape (http://www.inkscape.org/) -->

<svg
   xmlns:dc="http://purl.org/dc/elements/1.1/"
   xmlns:cc="http://creativecommons.org/ns#"
   xmlns:rdf="http://www.w3.org/1999/02/22-rdf-syntax-ns#"
   xmlns:svg="http://www.w3.org/2000/svg"
   xmlns="http://www.w3.org/2000/svg"
   version="1.1"
   width="100%"
   height="100%"
   viewBox="0 0 100 100"
   id="Ebene_1"
   xml:space="preserve"><metadata
   id="metadata20"><rdf:RDF><cc:Work
       rdf:about=""><dc:format>image/svg+xml</dc:format><dc:type
         rdf:resource="http://purl.org/dc/dcmitype/StillImage" /><dc:title></dc:title></cc:Work></rdf:RDF></metadata><defs
   id="defs18" />
<g
   transform="matrix(1.25,0,0,-1.25,-123.87225,344.69304)"
   id="_x32_4x24_3_">
	<g
   id="g4">
		<g
   transform="matrix(0.129016,0,0,0.12901568,89.497852,193.19453)"
   id="g710_4_">
			<path
   d="M 384.457,633.716 C 216.98,633.716 80.613,497.394 80.613,329.893 80.613,162.309 216.98,26.046 384.457,26.046 c 167.489,0 303.827,136.263 303.827,303.847 0,167.5 -136.338,303.823 -303.827,303.823"
   id="path718-7_5_"
   style="fill:#ffffff" />
			<g
   transform="translate(297.6431,231.0293)"
   id="g716_14_">
				<path
   d="m 86.809,-185.443 c -156.748,0 -284.288,127.532 -284.288,284.306 0,156.815 127.54,284.312 284.288,284.312 156.774,0 284.283,-127.497 284.283,-284.312 0.001,-156.774 -127.508,-284.306 -284.283,-284.306 m 0,588.13 c -167.478,0 -303.845,-136.323 -303.845,-303.824 0,-167.584 136.367,-303.847 303.845,-303.847 167.49,0 303.827,136.263 303.827,303.847 0,167.502 -136.337,303.824 -303.827,303.824"
   id="path718_16_"
   style="fill:#000c2a" />
			</g>
			<g
   transform="translate(425.498,379.209)"
   id="g720_16_">
				<path
   d="m 154.731,-106.725 c 0,-0.926 -0.345,-1.87 -1.358,-2.62 -0.66,-0.464 -1.289,-0.583 -1.886,-0.583 h -33.885 c -0.661,-0.06 -1.315,0.132 -1.911,0.539 -1.259,1.046 -1.259,1.836 -1.334,2.664 V 16.831 c 0,0.658 0.198,1.335 0.646,1.905 0.986,1.243 1.732,1.285 2.599,1.349 h 33.885 c 0.628,0 1.312,-0.213 1.886,-0.6 1.254,-1.049 1.28,-1.827 1.358,-2.654 v -123.556 z m -53.462,69.773 c 0,-0.933 -0.296,-1.913 -1.312,-2.629 -0.655,-0.464 -1.269,-0.631 -1.914,-0.631 h -52.14 c -0.646,0 -1.334,0.196 -1.9,0.631 -1.285,1.014 -1.303,1.761 -1.381,2.629 v 53.783 c 0,0.658 0.216,1.306 0.634,1.905 1.017,1.243 1.792,1.285 2.648,1.349 h 52.14 c 0.657,0 1.344,-0.213 1.914,-0.6 1.256,-1.049 1.271,-1.827 1.312,-2.654 v -53.783 z m -71.682,0 c 0,-0.933 -0.328,-1.913 -1.331,-2.629 -0.643,-0.464 -1.318,-0.631 -1.914,-0.631 h -52.11 c -0.675,0 -1.375,0.196 -1.932,0.631 -1.243,1.014 -1.303,1.761 -1.378,2.629 v 53.783 c 0,0.658 0.21,1.306 0.631,1.905 1.044,1.243 1.81,1.285 2.68,1.349 h 52.11 c 0.64,0 1.358,-0.213 1.914,-0.6 1.236,-1.049 1.295,-1.827 1.331,-2.654 v -53.783 z m -71.657,0 c -0.031,-0.933 -0.375,-1.913 -1.361,-2.629 -0.643,-0.464 -1.331,-0.631 -1.931,-0.631 h -52.183 c -0.6,0 -1.289,0.196 -1.854,0.631 -1.274,1.014 -1.318,1.761 -1.363,2.629 v 53.783 c 0,0.658 0.181,1.306 0.599,1.905 1.032,1.243 1.808,1.285 2.618,1.349 h 52.183 c 0.629,0 1.329,-0.213 1.931,-0.6 1.223,-1.049 1.288,-1.827 1.361,-2.654 l 0,-53.783 z m -69.967,0 c 0,-0.933 -0.374,-1.913 -1.378,-2.629 -0.596,-0.482 -1.285,-0.631 -1.899,-0.631 h -52.157 c -0.626,0 -1.314,0.196 -1.882,0.631 -1.227,1.014 -1.285,1.761 -1.375,2.629 v 53.783 c 0,0.658 0.208,1.306 0.599,1.905 1.046,1.243 1.822,1.285 2.658,1.349 h 52.157 c 0.674,0 1.349,-0.213 1.899,-0.6 1.243,-1.049 1.288,-1.827 1.378,-2.654 v -53.783 z m -71.698,0 c 0,-0.933 -0.363,-1.913 -1.349,-2.629 -0.626,-0.464 -1.285,-0.631 -1.946,-0.631 h -52.123 c -0.631,0 -1.317,0.196 -1.886,0.631 -1.269,1.014 -1.314,1.761 -1.344,2.629 v 53.783 c 0,0.658 0.211,1.306 0.626,1.905 1.032,1.243 1.796,1.285 2.605,1.349 h 52.123 c 0.691,0 1.347,-0.213 1.932,-0.6 1.24,-1.049 1.299,-1.827 1.363,-2.654 l -0.001,-53.783 z m 348.949,75.636 c -1.26,0.893 -2.572,1.199 -3.802,1.199 h -410.555 c -1.839,0 -3.77,-0.695 -5.264,-2.683 -0.896,-1.253 -1.256,-2.572 -1.256,-3.813 v -149.955 c 0.032,-1.854 0.704,-3.735 2.719,-5.263 1.227,-0.894 2.588,-1.227 3.801,-1.227 l 51.647,0.028 c 1.841,0.032 3.71,0.66 5.177,2.608 0.865,1.223 1.194,2.542 1.194,3.738 -0.3,7.731 1.796,15.792 6.788,22.61 2.213,3.107 4.995,5.906 8.074,8.134 3.111,2.214 6.523,3.951 10.079,5.085 3.563,1.15 7.237,1.723 10.902,1.723 7.175,0 14.637,-2.171 20.992,-6.808 3.113,-2.228 5.817,-5.015 8.074,-8.102 2.229,-3.082 3.937,-6.537 5.119,-10.054 1.104,-3.592 1.597,-7.238 1.672,-10.916 -0.075,-2.453 0.104,-4.905 2.677,-6.846 1.167,-0.867 2.482,-1.199 3.649,-1.199 H 21.406 c 0.675,0 1.331,0.09 1.958,0.296 1.167,0.392 2.35,1.083 3.185,2.34 0.916,1.211 1.23,2.494 1.23,3.738 -0.314,7.731 1.808,15.761 6.756,22.61 2.259,3.107 5.042,5.859 8.086,8.111 3.104,2.237 6.523,3.941 10.112,5.108 3.559,1.09 7.211,1.686 10.856,1.686 7.177,0.037 14.642,-2.207 21.009,-6.794 3.099,-2.252 5.848,-5.004 8.105,-8.111 2.246,-3.084 3.906,-6.505 5.07,-10.053 1.165,-3.562 1.704,-7.237 1.704,-10.913 -0.119,-2.425 0.09,-4.877 2.648,-6.819 1.181,-0.867 2.496,-1.199 3.696,-1.199 h 55.59 c 1.873,0.028 3.771,0.721 5.293,2.695 0.9,1.283 1.23,2.586 1.23,3.794 V 33.388 c 0.001,1.86 -0.718,3.759 -2.72,5.296"
   id="path722_16_"
   style="fill:#000c2a" />
			</g>
			<g
   transform="translate(376.4258,387.4707)"
   id="g724_12_">
				<path
   d="m 128.662,-102.336 c -2.18,1.588 -4.632,2.83 -7.267,3.712 -2.497,0.759 -5.143,1.178 -7.832,1.178 -5.402,0 -10.74,-1.717 -15.133,-4.889 -2.231,-1.585 -4.232,-3.592 -5.805,-5.846 -1.612,-2.196 -2.836,-4.656 -3.709,-7.253 -0.778,-2.542 -1.196,-5.174 -1.196,-7.864 -0.034,-5.384 1.736,-10.737 4.86,-15.073 1.585,-2.243 3.618,-4.277 5.849,-5.845 2.21,-1.602 4.666,-2.843 7.232,-3.672 5.116,-1.632 10.65,-1.632 15.781,0 2.588,0.828 5.01,2.07 7.252,3.672 2.211,1.568 4.229,3.601 5.814,5.845 1.603,2.18 2.857,4.603 3.693,7.24 0.778,2.51 1.197,5.108 1.197,7.834 0,5.382 -1.732,10.769 -4.891,15.118 -1.584,2.228 -3.602,4.258 -5.845,5.843"
   id="path726_12_"
   style="fill:#000c2a" />
			</g>
			<g
   transform="translate(232.9697,387.4707)"
   id="g728_9_">
				<path
   d="m 52.453,-102.336 c -2.21,1.588 -4.679,2.83 -7.298,3.712 -2.511,0.759 -5.154,1.178 -7.852,1.178 -5.395,0 -10.751,-1.717 -15.118,-4.889 -2.179,-1.585 -4.212,-3.592 -5.799,-5.799 -1.614,-2.243 -2.842,-4.704 -3.707,-7.258 -0.807,-2.585 -1.196,-5.217 -1.196,-7.907 0,-5.352 1.703,-10.737 4.903,-15.073 1.586,-2.243 3.62,-4.277 5.799,-5.845 2.216,-1.602 4.664,-2.843 7.24,-3.672 5.116,-1.632 10.619,-1.632 15.73,0 2.574,0.828 5.088,2.07 7.298,3.672 2.185,1.568 4.217,3.601 5.834,5.845 1.583,2.18 2.808,4.603 3.661,7.24 0.792,2.51 1.184,5.157 1.184,7.834 0.029,5.382 -1.694,10.769 -4.859,15.118 -1.603,2.252 -3.635,4.259 -5.82,5.844"
   id="path730_9_"
   style="fill:#000c2a" />
			</g>
		</g>
	</g>
</g>
</svg>