<?xml version="1.0" encoding="UTF-8" standalone="no"?>
<!-- Created with Inkscape (http://www.inkscape.org/) -->

<svg
   xmlns:dc="http://purl.org/dc/elements/1.1/"
   xmlns:cc="http://creativecommons.org/ns#"
   xmlns:rdf="http://www.w3.org/1999/02/22-rdf-syntax-ns#"
   xmlns:svg="http://www.w3.org/2000/svg"
   xmlns="http://www.w3.org/2000/svg"
   version="1.1"
   width="100%"
   height="100%"
   viewBox="0 0 100 100"
   id="Ebene_1"
   xml:space="preserve"><metadata
   id="metadata17"><rdf:RDF><cc:Work
       rdf:about=""><dc:format>image/svg+xml</dc:format><dc:type
         rdf:resource="http://purl.org/dc/dcmitype/StillImage" /><dc:title></dc:title></cc:Work></rdf:RDF></metadata><defs
   id="defs15" />
<g
   transform="matrix(1.25,0,0,-1.25,-123.87244,344.69315)"
   id="_x32_4x24_5_">
	<g
   id="g3850_2_">
		<g
   id="g5">
			<path
   d="m 139.099,274.954 c -21.607,0 -39.201,-17.588 -39.201,-39.198 0,-21.621 17.594,-39.201 39.201,-39.201 21.609,0 39.199,17.58 39.199,39.201 0,21.61 -17.59,39.198 -39.199,39.198"
   id="path718-7_7_"
   style="fill:#ffffff" />
			<g
   transform="matrix(0.12901598,0,0,0.12901598,89.49801,193.19443)"
   id="g710_5_">
				<g
   transform="translate(297.6431,231.0303)"
   id="g716_16_">
					<path
   d="m 86.814,-185.445 c -156.749,0 -284.29,127.53 -284.29,284.309 0,156.815 127.541,284.313 284.29,284.313 156.777,0 284.286,-127.498 284.286,-284.313 0,-156.778 -127.509,-284.309 -284.286,-284.309 m 0,588.135 c -167.48,0 -303.847,-136.324 -303.847,-303.826 0,-167.586 136.367,-303.851 303.847,-303.851 167.491,0 303.829,136.264 303.829,303.851 0,167.502 -136.338,303.826 -303.829,303.826"
   id="path718_18_"
   style="fill:#000c2a" />
				</g>
				<g
   transform="translate(307.9111,393.1904)"
   id="g720_18_">
					<path
   d="m 92.269,-99.297 27.314,116.603 8.658,-116.603 H 92.269 z m -67.517,0 7.884,116.138 26.091,-116.138 H 24.752 z m 214.829,0 h -70.698 l -13.425,161.556 -0.107,1.929 H 153.699 99.503 97.56 96.183 L 95.917,62.54 76.479,-30.36 58.977,62.438 58.715,64.188 H 57.413 55.978 -1.727 -3.493 L -3.73,62.259 -16.902,-99.297 h -69.961 c -5,0 -9.186,-4.435 -9.186,-9.751 v -61.964 c 0,-5.385 4.186,-9.965 9.186,-9.965 h 326.444 c 5.562,0 9.9,4.58 9.9,9.965 v 61.964 c 0,5.317 -4.338,9.751 -9.9,9.751"
   id="path722_18_"
   style="fill:#000c2a" />
				</g>
			</g>
		</g>
	</g>
</g>
</svg>