<?xml version="1.0" encoding="UTF-8" standalone="no"?>
<!-- Created with Inkscape (http://www.inkscape.org/) -->

<svg
   xmlns:dc="http://purl.org/dc/elements/1.1/"
   xmlns:cc="http://creativecommons.org/ns#"
   xmlns:rdf="http://www.w3.org/1999/02/22-rdf-syntax-ns#"
   xmlns:svg="http://www.w3.org/2000/svg"
   xmlns="http://www.w3.org/2000/svg"
   version="1.1"
   width="100%"
   height="100%"
   viewBox="0 0 100 100"
   id="Ebene_1"
   xml:space="preserve"><metadata
   id="metadata20"><rdf:RDF><cc:Work
       rdf:about=""><dc:format>image/svg+xml</dc:format><dc:type
         rdf:resource="http://purl.org/dc/dcmitype/StillImage" /><dc:title></dc:title></cc:Work></rdf:RDF></metadata><defs
   id="defs18" />

<path
   d="m -56.355936,-13.983051 a 28.813559,28.813559 0 1 1 -57.627114,0 28.813559,28.813559 0 1 1 57.627114,0 z"
   transform="matrix(1.7005883,0,0,1.7005883,194.83825,73.779413)"
   id="path2990"
   style="color:#000000;fill:#ffffff;fill-opacity:1;fill-rule:nonzero;stroke:none;stroke-width:8;marker:none;visibility:visible;display:inline;overflow:visible;enable-background:accumulate" /><g
   transform="matrix(0.46711153,0,0,0.46711153,123.62945,50.593788)"
   id="g3778"><g
     transform="translate(-299.32712,-143.27119)"
     id="g3"
     style="fill:#000c2a;fill-opacity:1"><path
       d="m 141.7,37.1 c -57.8,0 -104.9,47 -104.9,104.9 0,57.8 47,104.9 104.9,104.9 57.8,0 104.9,-47.1 104.9,-104.9 0,-57.9 -47.1,-104.9 -104.9,-104.9 z m 0,203.7 c -54.5,0 -98.9,-44.3 -98.9,-98.9 0,-54.6 44.3,-98.9 98.9,-98.9 54.5,0 98.9,44.3 98.9,98.9 0,54.6 -44.4,98.9 -98.9,98.9 z"
       id="path5"
       style="fill:#000c2a;fill-opacity:1" /></g><g
     transform="translate(-299.32712,-143.27119)"
     id="g7"
     style="fill:#000c2a;fill-opacity:1"><path
       d="m 168.1,199.2 h 5.5 l -15.3,-22.9 h -5.5 l 3.1,4.6 h -28.3 l 3.1,-4.6 h -5.5 l -15.3,22.9 h 5.5 l 3.1,-4.6 H 165 l 3.1,4.6 z m -46.7,-9.2 3.1,-4.6 h 34.4 l 3.1,4.6 h -40.6 z"
       id="path9"
       style="fill:#000c2a;fill-opacity:1" /><path
       d="m 167.7,94.5 c -6.2,-5.3 -17.2,-6.3 -26.1,-6.3 -8.9,0 -19.8,1 -26.1,6.3 -6.2,5.3 -7.9,25.7 -7.9,43.4 0,17.7 0.9,25.8 3.5,29.7 2.3,3.4 6.6,4.1 14.7,4.1 h 31.4 c 8.2,0 12.4,-0.7 14.7,-4.1 2.6,-3.8 3.5,-12 3.5,-29.7 0.2,-17.7 -1.4,-38.1 -7.7,-43.4 z m -26,-1.7 c 1.5,0 5.4,0.2 5.4,3.7 0,3.5 -3.8,3.7 -5.4,3.7 -1.5,0 -5.4,-0.2 -5.4,-3.7 0,-3.5 3.8,-3.7 5.4,-3.7 z m -18.3,71 c -3.3,0 -6.1,-2.7 -6.1,-6.1 0,-3.3 2.7,-6.1 6.1,-6.1 3.4,0 6.1,2.7 6.1,6.1 -0.1,3.3 -2.8,6.1 -6.1,6.1 z m 36.6,0 c -3.3,0 -6.1,-2.7 -6.1,-6.1 0,-3.3 2.7,-6.1 6.1,-6.1 3.3,0 6.1,2.7 6.1,6.1 0,3.3 -2.7,6.1 -6.1,6.1 z m -47.1,-26.4 c 0,0 -0.7,-23.6 3.8,-28.1 4.6,-4.5 18.1,-4.5 25,-4.5 6.9,0 20.4,0 25,4.5 4.6,4.5 3.8,28.1 3.8,28.1 -19.2,0.9 -38.4,0.9 -57.6,0 z"
       id="path11"
       style="fill:#000c2a;fill-opacity:1" /></g></g></svg>