<?xml version="1.0" standalone="no"?>
<!DOCTYPE svg PUBLIC "-//W3C//DTD SVG 20010904//EN"
 "http://www.w3.org/TR/2001/REC-SVG-20010904/DTD/svg10.dtd">
<svg version="1.0" xmlns="http://www.w3.org/2000/svg"
 width="192.000000pt" height="192.000000pt" viewBox="0 0 192.000000 192.000000"
 preserveAspectRatio="xMidYMid meet">

<g transform="translate(0.000000,192.000000) scale(0.100000,-0.100000)"
fill="#000000" stroke="none">
<path d="M1205 1871 c-84 -30 -117 -51 -180 -115 -71 -71 -110 -147 -127 -245
-39 -230 123 -462 357 -511 l55 -11 0 -360 0 -359 -240 0 -240 0 2 363 3 362
22 3 c22 3 23 3 25 -170 l3 -173 35 0 35 0 3 206 c2 199 2 207 -19 234 -37 46
-74 55 -222 55 -133 0 -136 1 -297 50 -181 56 -214 60 -230 30 -21 -39 2 -53
181 -115 l174 -60 3 -393 2 -392 -50 0 -50 0 0 -80 0 -80 -162 -2 -163 -3 0
-35 0 -35 203 -3 202 -2 0 80 0 80 598 2 597 3 3 38 3 37 -175 0 -176 0 0 359
0 360 55 11 c131 27 256 124 314 242 121 249 0 537 -264 628 -76 26 -209 27
-280 1z m205 -51 c127 -24 229 -103 284 -220 28 -59 31 -74 31 -160 0 -82 -4
-103 -27 -152 -37 -80 -107 -151 -187 -191 -61 -30 -73 -32 -166 -32 -89 0
-107 3 -162 29 -77 35 -153 113 -191 193 -23 50 -27 71 -27 153 0 86 3 101 32
162 54 114 155 194 275 217 61 12 78 12 138 1z m-690 -1350 l0 -200 -25 0 -25
0 0 200 0 200 25 0 25 0 0 -200z"/>
<path d="M1227 1726 c-77 -21 -93 -43 -106 -145 -6 -48 -11 -144 -11 -213 0
-116 2 -126 19 -131 12 -3 21 -15 23 -33 2 -24 8 -30 32 -32 31 -4 46 10 46
46 0 22 2 22 115 22 113 0 115 0 115 -22 0 -36 15 -50 46 -46 24 2 30 8 32 32
2 18 11 30 23 33 17 5 19 15 19 126 0 66 -5 161 -12 211 -9 76 -16 95 -38 117
-45 46 -197 63 -303 35z m185 -73 c3 -26 7 -28 46 -29 23 -1 45 -3 47 -6 2 -2
8 -37 11 -76 l7 -72 -177 0 -176 0 0 29 c0 15 3 49 6 74 l7 46 46 3 c42 3 46
5 49 31 3 26 5 27 67 27 62 0 64 -1 67 -27z m-178 -269 c9 -8 16 -22 16 -29 0
-7 -7 -21 -16 -29 -30 -30 -74 -13 -74 29 0 42 44 59 74 29z m284 4 c27 -27 7
-78 -29 -78 -21 0 -49 26 -49 45 0 35 53 58 78 33z"/>
<path d="M626 1344 c-39 -40 -37 -103 5 -138 43 -36 91 -35 130 3 21 22 29 39
29 66 0 83 -105 127 -164 69z"/>
</g>
</svg>
