<?xml version="1.0" encoding="UTF-8" standalone="no"?>
<!-- Created with Inkscape (http://www.inkscape.org/) -->

<svg
   xmlns:dc="http://purl.org/dc/elements/1.1/"
   xmlns:cc="http://creativecommons.org/ns#"
   xmlns:rdf="http://www.w3.org/1999/02/22-rdf-syntax-ns#"
   xmlns:svg="http://www.w3.org/2000/svg"
   xmlns="http://www.w3.org/2000/svg"
   version="1.1"
   width="100%"
   height="100%"
   viewBox="0 0 100 100"
   id="Ebene_1"
   xml:space="preserve"><metadata
   id="metadata21"><rdf:RDF><cc:Work
       rdf:about=""><dc:format>image/svg+xml</dc:format><dc:type
         rdf:resource="http://purl.org/dc/dcmitype/StillImage" /><dc:title></dc:title></cc:Work></rdf:RDF></metadata><defs
   id="defs19" />
<g
   transform="matrix(1.25,0,0,-1.25,-122.85925,343.68)"
   id="_x32_4x24_7_">
	<g
   id="g3095_2_">
		<path
   d="m 138.288,274.144 c -21.607,0 -39.201,-17.588 -39.201,-39.198 0,-21.621 17.594,-39.201 39.201,-39.201 21.609,0 39.199,17.58 39.199,39.201 0,21.61 -17.59,39.198 -39.199,39.198"
   id="path718-7_9_"
   style="fill:#ffffff" />
		<path
   d="m 138.289,198.265 c -20.223,0 -36.678,16.453 -36.678,36.68 0,20.232 16.455,36.681 36.678,36.681 20.227,0 36.677,-16.449 36.677,-36.681 0,-20.226 -16.451,-36.68 -36.677,-36.68 m 0,75.879 c -21.608,0 -39.201,-17.588 -39.201,-39.198 0,-21.621 17.594,-39.202 39.201,-39.202 21.609,0 39.199,17.58 39.199,39.202 -0.001,21.61 -17.59,39.198 -39.199,39.198"
   id="path718_20_"
   style="fill:#000c2a" />
		<g
   transform="matrix(0.12893458,0,0,0.12893458,130.49833,254.58071)"
   id="g720_20_">
			<path
   d="m 100.945,-52.04 c -0.498,3.628 -1.724,6.161 -7.732,6.161 H 54.036 c -3.726,0 -5.666,-1.06 -6.688,-2.634 l -0.043,0.003 -0.21,-0.409 C 47.032,-49.035 25.016,-91.488 25.016,-91.488 h 81.255 l -5.326,39.448 z"
   id="path722_20_"
   style="fill:#000c2a" />
		</g>
		<g
   transform="matrix(0.12893458,0,0,0.12893458,138.31625,249.04465)"
   id="g724_14_">
			<path
   d="m 133.216,-74.892 h -0.023 c -0.412,2.966 -2.102,5.409 -7.643,5.409 h -242.799 c -4.292,0 -6.253,-1.384 -7.116,-3.366 h -0.009 l -13.503,-27.157 h 276.028 l -4.935,25.114 z"
   id="path726_14_"
   style="fill:#000c2a" />
		</g>
		<g
   transform="matrix(0.12893458,0,0,0.12893458,118.52145,257.87913)"
   id="g728_11_">
			<path
   d="m 51.507,-38.425 c 0.002,-0.006 0.002,-0.014 0.005,-0.02 l 10.672,-78.625 h 18.192 l -11.007,81.053 v 0.014 l -0.429,3.146 c -1.076,7.935 -5.246,8.576 -9.72,7.971 l -0.896,-0.12 c -4.362,-0.593 -8.314,-2.416 -7.244,-10.278 l 0.427,-3.141 z"
   id="path730_11_"
   style="fill:#000c2a" />
		</g>
		<g
   transform="matrix(0.12893458,0,0,0.12893458,133.33199,257.78318)"
   id="g732_5_">
			<path
   d="m 112.642,-38.821 c 0.11,-0.849 0.283,-1.567 0.461,-2.257 l 10.215,-75.247 h 18.192 l -11.223,82.658 -0.15,-0.025 -0.058,0.434 c -1.079,7.937 -5.249,8.58 -9.728,7.975 l -0.895,-0.127 c -4.358,-0.585 -8.309,-2.41 -7.241,-10.273 l 0.427,-3.138 z"
   id="path734_5_"
   style="fill:#000c2a" />
		</g>
		<g
   transform="matrix(0.12893458,0,0,0.12893458,145.2422,244.25721)"
   id="g736_2_">
			<path
   d="m 161.805,-94.654 c 0,3.72 -1.14,7.22 -7.785,7.22 h -391.868 c -4.057,0 -6.022,-1.241 -6.959,-3.051 h -0.023 l -30.48,-60.958 h 0.003 c -0.555,-1.172 -0.711,-2.562 -0.711,-4.021 v -0.758 c 0,-3.709 1.076,-7.223 7.764,-7.223 h 391.868 c 4.145,0 6.126,1.295 7.044,3.162 h 0.037 l 30.355,60.763 h -0.015 c 0.602,1.187 0.772,2.611 0.772,4.105 v 0.761 z"
   id="path738_2_"
   style="fill:#000c2a" />
		</g>
	</g>
</g>
</svg>